<svg width="81" height="80" viewBox="0 0 81 80" fill="none" xmlns="http://www.w3.org/2000/svg">
<circle cx="40.8203" cy="40" r="40" fill="#94765B"/>
<path d="M27.5176 55.3662C23.9857 55.3662 21.3327 54.4629 19.5586 52.6562C17.7845 50.8333 16.8975 48.3757 16.8975 45.2832V29.1455C16.8975 26.0042 17.7926 23.5384 19.583 21.748C21.3734 19.9577 24.0182 19.0625 27.5176 19.0625C31.0332 19.0625 33.6781 19.9577 35.4521 21.748C37.2425 23.5221 38.1377 25.988 38.1377 29.1455V45.2832C38.1377 48.4245 37.2425 50.8903 35.4521 52.6807C33.6618 54.471 31.0169 55.3662 27.5176 55.3662ZM27.5176 48.9209C28.9173 48.9209 29.9183 48.4489 30.5205 47.5049C31.139 46.5446 31.4482 45.2344 31.4482 43.5742V30.8545C31.4482 29.1781 31.139 27.8678 30.5205 26.9238C29.9183 25.9798 28.9173 25.5078 27.5176 25.5078C26.1341 25.5078 25.1331 25.9798 24.5146 26.9238C23.8962 27.8678 23.5869 29.1781 23.5869 30.8545V43.5742C23.5869 45.2344 23.8962 46.5446 24.5146 47.5049C25.1331 48.4489 26.1341 48.9209 27.5176 48.9209ZM54.8857 55.3662C52.0374 55.3662 49.6449 54.4385 47.708 52.583C45.7874 50.7275 44.7132 48.1152 44.4854 44.7461V44.7217H51.1748V44.7461C51.305 46.0482 51.7038 47.0654 52.3711 47.7979C53.0384 48.514 53.9092 48.8721 54.9834 48.8721C56.1553 48.8721 57.0586 48.4896 57.6934 47.7246C58.3444 46.9434 58.6699 45.861 58.6699 44.4775V41.499C58.6699 40.0993 58.3851 39.0251 57.8154 38.2764C57.2458 37.5114 56.432 37.1289 55.374 37.1289C54.4137 37.1289 53.5918 37.373 52.9082 37.8613C52.2409 38.3496 51.777 39.0332 51.5166 39.9121H45.2666V19.502H64.334V25.9473H51.9561V32.2217C52.4769 31.7171 53.1686 31.3265 54.0312 31.0498C54.9102 30.7731 55.7728 30.6348 56.6191 30.6348C59.4023 30.6348 61.5508 31.5869 63.0645 33.4912C64.5944 35.3792 65.3594 38.0485 65.3594 41.499V44.4775C65.3594 47.9443 64.4479 50.6299 62.625 52.5342C60.8021 54.4222 58.2223 55.3662 54.8857 55.3662Z" fill="white"/>
</svg>
