<svg width="81" height="80" viewBox="0 0 81 80" fill="none" xmlns="http://www.w3.org/2000/svg">
<circle cx="40.8203" cy="40" r="40" fill="#94765B"/>
<path d="M27.9785 52.3662C24.4466 52.3662 21.7936 51.4629 20.0195 49.6562C18.2454 47.8333 17.3584 45.3757 17.3584 42.2832V26.1455C17.3584 23.0042 18.2536 20.5384 20.0439 18.748C21.8343 16.9577 24.4792 16.0625 27.9785 16.0625C31.4941 16.0625 34.139 16.9577 35.9131 18.748C37.7035 20.5221 38.5986 22.988 38.5986 26.1455V42.2832C38.5986 45.4245 37.7035 47.8903 35.9131 49.6807C34.1227 51.471 31.4779 52.3662 27.9785 52.3662ZM27.9785 45.9209C29.3783 45.9209 30.3792 45.4489 30.9814 44.5049C31.5999 43.5446 31.9092 42.2344 31.9092 40.5742V27.8545C31.9092 26.1781 31.5999 24.8678 30.9814 23.9238C30.3792 22.9798 29.3783 22.5078 27.9785 22.5078C26.5951 22.5078 25.5941 22.9798 24.9756 23.9238C24.3571 24.8678 24.0479 26.1781 24.0479 27.8545V40.5742C24.0479 42.2344 24.3571 43.5446 24.9756 44.5049C25.5941 45.4489 26.5951 45.9209 27.9785 45.9209ZM54.5898 52.3662C51.3021 52.3662 48.7467 51.4303 46.9238 49.5586C45.1172 47.6868 44.2139 45.0501 44.2139 41.6484V41.624C44.2139 40.0941 44.4336 38.4827 44.873 36.79C45.3125 35.0811 45.9147 33.4128 46.6797 31.7852L53.8818 16.502H61.4502L52.9053 34.2021L51.2207 33.3232C52.0671 31.7119 53.5726 30.9062 55.7373 30.9062C58.6833 30.9062 60.9619 31.834 62.5732 33.6895C64.1846 35.5286 64.9902 38.1328 64.9902 41.502V41.5264C64.9902 44.9606 64.0788 47.6299 62.2559 49.5342C60.4492 51.4222 57.8939 52.3662 54.5898 52.3662ZM54.5898 45.9209C55.7943 45.9209 56.7139 45.5791 57.3486 44.8955C57.9834 44.1956 58.3008 43.2109 58.3008 41.9414V41.917C58.3008 40.4684 57.9834 39.3454 57.3486 38.5479C56.7139 37.7503 55.7943 37.3516 54.5898 37.3516C53.418 37.3516 52.5065 37.7585 51.8555 38.5723C51.2207 39.3698 50.9033 40.4928 50.9033 41.9414V41.9658C50.9033 43.2354 51.2207 44.2119 51.8555 44.8955C52.5065 45.5791 53.418 45.9209 54.5898 45.9209Z" fill="white"/>
</svg>
