<svg width="81" height="80" viewBox="0 0 81 80" fill="none" xmlns="http://www.w3.org/2000/svg">
<circle cx="40.8203" cy="40" r="40" fill="#94765B"/>
<path d="M28.2227 52.3662C24.6908 52.3662 22.0378 51.4629 20.2637 49.6562C18.4896 47.8333 17.6025 45.3757 17.6025 42.2832V26.1455C17.6025 23.0042 18.4977 20.5384 20.2881 18.748C22.0785 16.9577 24.7233 16.0625 28.2227 16.0625C31.7383 16.0625 34.3831 16.9577 36.1572 18.748C37.9476 20.5221 38.8428 22.988 38.8428 26.1455V42.2832C38.8428 45.4245 37.9476 47.8903 36.1572 49.6807C34.3669 51.471 31.722 52.3662 28.2227 52.3662ZM28.2227 45.9209C29.6224 45.9209 30.6234 45.4489 31.2256 44.5049C31.8441 43.5446 32.1533 42.2344 32.1533 40.5742V27.8545C32.1533 26.1781 31.8441 24.8678 31.2256 23.9238C30.6234 22.9798 29.6224 22.5078 28.2227 22.5078C26.8392 22.5078 25.8382 22.9798 25.2197 23.9238C24.6012 24.8678 24.292 26.1781 24.292 27.8545V40.5742C24.292 42.2344 24.6012 43.5446 25.2197 44.5049C25.8382 45.4489 26.8392 45.9209 28.2227 45.9209ZM64.502 16.502V20.9453L56.543 52H49.292L57.0068 22.9473H50.9033V28.2939H44.2139V16.502H64.502Z" fill="white"/>
</svg>
