<svg width="81" height="80" viewBox="0 0 81 80" fill="none" xmlns="http://www.w3.org/2000/svg">
<circle cx="40.8203" cy="40" r="40" fill="#94765B"/>
<path d="M26.7578 52.3662C23.2259 52.3662 20.5729 51.4629 18.7988 49.6562C17.0247 47.8333 16.1377 45.3757 16.1377 42.2832V26.1455C16.1377 23.0042 17.0329 20.5384 18.8232 18.748C20.6136 16.9577 23.2585 16.0625 26.7578 16.0625C30.2734 16.0625 32.9183 16.9577 34.6924 18.748C36.4827 20.5221 37.3779 22.988 37.3779 26.1455V42.2832C37.3779 45.4245 36.4827 47.8903 34.6924 49.6807C32.902 51.471 30.2572 52.3662 26.7578 52.3662ZM26.7578 45.9209C28.1576 45.9209 29.1585 45.4489 29.7607 44.5049C30.3792 43.5446 30.6885 42.2344 30.6885 40.5742V27.8545C30.6885 26.1781 30.3792 24.8678 29.7607 23.9238C29.1585 22.9798 28.1576 22.5078 26.7578 22.5078C25.3743 22.5078 24.3734 22.9798 23.7549 23.9238C23.1364 24.8678 22.8271 26.1781 22.8271 27.8545V40.5742C22.8271 42.2344 23.1364 43.5446 23.7549 44.5049C24.3734 45.4489 25.3743 45.9209 26.7578 45.9209ZM54.6143 52.3662C52.3519 52.3662 50.3743 51.9593 48.6816 51.1455C47.0052 50.3317 45.695 49.1842 44.751 47.7031C43.8232 46.222 43.3594 44.4886 43.3594 42.5029V41.917C43.3594 40.1429 43.8477 38.4746 44.8242 36.9121C45.8008 35.3496 47.1029 34.1696 48.7305 33.3721C47.347 32.6885 46.224 31.7119 45.3613 30.4424C44.515 29.1729 44.0918 27.8219 44.0918 26.3896V25.4619C44.0918 22.6462 45.0521 20.3919 46.9727 18.6992C48.8932 16.9902 51.4404 16.1357 54.6143 16.1357C57.7881 16.1357 60.3353 16.9902 62.2559 18.6992C64.1764 20.3919 65.1367 22.6462 65.1367 25.4619V26.3896C65.1367 27.8545 64.7054 29.2217 63.8428 30.4912C62.9801 31.7445 61.8408 32.7048 60.4248 33.3721C62.0687 34.1696 63.387 35.3496 64.3799 36.9121C65.3727 38.4746 65.8691 40.1429 65.8691 41.917V42.5029C65.8691 44.4886 65.3971 46.222 64.4531 47.7031C63.5254 49.1842 62.2152 50.3317 60.5225 51.1455C58.846 51.9593 56.8766 52.3662 54.6143 52.3662ZM54.6143 45.9209C55.9814 45.9209 57.0801 45.5221 57.9102 44.7246C58.7565 43.9108 59.1797 42.8447 59.1797 41.5264V41.1846C59.1797 39.9801 58.7565 39.0117 57.9102 38.2793C57.0801 37.5469 55.9814 37.1807 54.6143 37.1807C53.2471 37.1807 52.1403 37.5469 51.2939 38.2793C50.4639 39.0117 50.0488 39.9883 50.0488 41.209V41.5752C50.0488 42.8773 50.4639 43.9271 51.2939 44.7246C52.1403 45.5221 53.2471 45.9209 54.6143 45.9209ZM54.6143 30.6865C55.7699 30.6865 56.6976 30.3203 57.3975 29.5879C58.0973 28.8555 58.4473 27.8789 58.4473 26.6582V26.3164C58.4473 25.1934 58.0973 24.29 57.3975 23.6064C56.6976 22.9229 55.7699 22.5811 54.6143 22.5811C53.4749 22.5811 52.5472 22.9229 51.8311 23.6064C51.1312 24.29 50.7812 25.2015 50.7812 26.3408V26.707C50.7812 27.8952 51.1312 28.8555 51.8311 29.5879C52.5472 30.3203 53.4749 30.6865 54.6143 30.6865Z" fill="white"/>
</svg>
