<svg width="81" height="80" viewBox="0 0 81 80" fill="none" xmlns="http://www.w3.org/2000/svg">
<circle cx="40.8203" cy="40" r="40" fill="#94765B"/>
<path d="M27.9785 52.3662C24.4466 52.3662 21.7936 51.4629 20.0195 49.6562C18.2454 47.8333 17.3584 45.3757 17.3584 42.2832V26.1455C17.3584 23.0042 18.2536 20.5384 20.0439 18.748C21.8343 16.9577 24.4792 16.0625 27.9785 16.0625C31.4941 16.0625 34.139 16.9577 35.9131 18.748C37.7035 20.5221 38.5986 22.988 38.5986 26.1455V42.2832C38.5986 45.4245 37.7035 47.8903 35.9131 49.6807C34.1227 51.471 31.4779 52.3662 27.9785 52.3662ZM27.9785 45.9209C29.3783 45.9209 30.3792 45.4489 30.9814 44.5049C31.5999 43.5446 31.9092 42.2344 31.9092 40.5742V27.8545C31.9092 26.1781 31.5999 24.8678 30.9814 23.9238C30.3792 22.9798 29.3783 22.5078 27.9785 22.5078C26.5951 22.5078 25.5941 22.9798 24.9756 23.9238C24.3571 24.8678 24.0479 26.1781 24.0479 27.8545V40.5742C24.0479 42.2344 24.3571 43.5446 24.9756 44.5049C25.5941 45.4489 26.5951 45.9209 27.9785 45.9209ZM49.0723 52L56.7871 34.373L57.9834 35.252C57.5602 36.0169 56.9336 36.5703 56.1035 36.9121C55.2734 37.2539 54.3132 37.4248 53.2227 37.4248C50.5208 37.4248 48.3398 36.4808 46.6797 34.5928C45.0358 32.6885 44.2139 30.1657 44.2139 27.0244V27C44.2139 23.5495 45.1172 20.8802 46.9238 18.9922C48.7467 17.0879 51.3102 16.1357 54.6143 16.1357C57.9183 16.1357 60.4736 17.096 62.2803 19.0166C64.0869 20.9209 64.9902 23.6227 64.9902 27.1221V27.1465C64.9902 28.5951 64.7461 30.1494 64.2578 31.8096C63.7858 33.4535 63.1999 35.1136 62.5 36.79L56.1523 52H49.0723ZM54.6143 31.1748C55.7861 31.1748 56.6895 30.8005 57.3242 30.0518C57.9753 29.2868 58.3008 28.2126 58.3008 26.8291V26.8047C58.3008 25.4701 57.9753 24.4447 57.3242 23.7285C56.6895 22.9961 55.7861 22.6299 54.6143 22.6299C53.4261 22.6299 52.5065 22.9961 51.8555 23.7285C51.2207 24.4609 50.9033 25.4945 50.9033 26.8291V26.8535C50.9033 28.237 51.2207 29.3031 51.8555 30.0518C52.5065 30.8005 53.4261 31.1748 54.6143 31.1748Z" fill="white"/>
</svg>
