<svg width="81" height="80" viewBox="0 0 81 80" fill="none" xmlns="http://www.w3.org/2000/svg">
<circle cx="40.8203" cy="40" r="40" fill="#94765B"/>
<path d="M31.9209 16.502V52H25.2314V24.3633L20.9102 25.999V18.8945L26.208 16.502H31.9209ZM49.6455 52.3662C46.1136 52.3662 43.4606 51.4629 41.6865 49.6562C39.9124 47.8333 39.0254 45.3757 39.0254 42.2832V26.1455C39.0254 23.0042 39.9206 20.5384 41.7109 18.748C43.5013 16.9577 46.1462 16.0625 49.6455 16.0625C53.1611 16.0625 55.806 16.9577 57.5801 18.748C59.3704 20.5221 60.2656 22.988 60.2656 26.1455V42.2832C60.2656 45.4245 59.3704 47.8903 57.5801 49.6807C55.7897 51.471 53.1449 52.3662 49.6455 52.3662ZM49.6455 45.9209C51.0452 45.9209 52.0462 45.4489 52.6484 44.5049C53.2669 43.5446 53.5762 42.2344 53.5762 40.5742V27.8545C53.5762 26.1781 53.2669 24.8678 52.6484 23.9238C52.0462 22.9798 51.0452 22.5078 49.6455 22.5078C48.262 22.5078 47.2611 22.9798 46.6426 23.9238C46.0241 24.8678 45.7148 26.1781 45.7148 27.8545V40.5742C45.7148 42.2344 46.0241 43.5446 46.6426 44.5049C47.2611 45.4489 48.262 45.9209 49.6455 45.9209Z" fill="white"/>
</svg>
