<svg width="81" height="80" viewBox="0 0 81 80" fill="none" xmlns="http://www.w3.org/2000/svg">
<circle cx="40.8203" cy="40" r="40" fill="#94765B"/>
<path d="M32.2998 17.502V53H25.6104V25.3633L21.2891 26.999V19.8945L26.5869 17.502H32.2998ZM38.8672 53V46.9697L51.0498 30.9541C51.6032 30.238 52.0264 29.5055 52.3193 28.7568C52.6286 27.9919 52.7832 27.2839 52.7832 26.6328V26.584C52.7832 25.6237 52.474 24.8831 51.8555 24.3623C51.237 23.8415 50.3581 23.5811 49.2188 23.5811C48.1283 23.5811 47.2331 23.9473 46.5332 24.6797C45.8496 25.3958 45.4346 26.4212 45.2881 27.7559V27.7803H38.4277V27.7559C38.6556 24.3867 39.7298 21.7744 41.6504 19.9189C43.5872 18.0635 46.0938 17.1357 49.1699 17.1357C52.5065 17.1357 55.0863 17.9414 56.9092 19.5527C58.7484 21.1641 59.668 23.4427 59.668 26.3887V26.4131C59.668 28.0244 59.3831 29.6276 58.8135 31.2227C58.2601 32.8014 57.4788 34.2337 56.4697 35.5195L47.7295 46.5547H59.8633V53H38.8672Z" fill="white"/>
</svg>
