<svg width="133" height="57" viewBox="0 0 133 57" fill="none" xmlns="http://www.w3.org/2000/svg">
<path d="M15.6357 52.8488L26.3818 52.9056C27.2347 50.9156 28.0307 48.8688 28.8267 46.765C29.6227 44.775 30.4756 42.8418 31.2147 40.6812C32.6362 36.758 34.5693 32.5506 36.1045 28.5706C36.9573 26.4669 37.6965 24.4768 38.4925 22.43C39.2885 20.5537 40.0276 18.2794 40.9374 16.3462C41.6196 14.9248 45.7134 4.69037 45.7702 4.06494H35.9339L15.6357 52.8488ZM31.1579 52.8488H41.8471L50.2051 31.2997C50.9443 29.4803 51.7403 27.6608 52.3657 25.9551C54.0146 21.3496 54.0146 22.6574 53.1617 20.4399L48.7268 9.9213C48.2151 10.3762 37.4122 37.4404 35.479 41.989C34.683 43.9221 34.0576 45.571 33.2616 47.3904C32.8636 48.4139 31.2147 52.1096 31.1579 52.8488Z" fill="#393D46"/>
<path d="M56.7439 51.5978C57.483 53.2467 57.1419 52.9055 61.6336 52.9055C63.6805 52.9055 65.7274 52.8487 67.7174 52.9055C67.7174 52.2801 56.8576 27.4333 56.8007 27.3765C56.3459 27.8313 53.105 37.0991 52.309 39.4303C51.911 40.3969 52.1953 40.6811 52.5364 41.5909C53.901 44.9454 55.2656 48.2432 56.7439 51.5978Z" fill="#FF2E17"/>
<path d="M0 52.8488L10.7461 52.9056C11.5421 50.9156 12.3381 48.8688 13.1341 46.765C13.9301 44.775 14.783 42.8418 15.579 40.6812C17.0004 36.758 18.8767 32.5506 20.4119 28.5706C21.2647 26.4669 22.0039 24.4768 22.8567 22.43C23.5959 20.5537 24.3919 18.2794 25.3016 16.3462C25.927 14.9248 30.0776 4.69037 30.0776 4.06494H20.2981L0 52.8488Z" fill="#393D46"/>
<path d="M84.6001 3.64062C85.1678 3.64062 85.7121 3.71615 86.2329 3.86719C86.7537 4.01302 87.1834 4.19271 87.522 4.40625C87.8657 4.61979 88.1652 4.83073 88.4204 5.03906C88.6756 5.2474 88.8631 5.42708 88.9829 5.57812L89.1548 5.79688L88.0376 6.92188C88.0063 6.88021 87.9595 6.82292 87.897 6.75C87.8397 6.67188 87.7043 6.53385 87.4907 6.33594C87.2772 6.13802 87.048 5.96875 86.8032 5.82812C86.5584 5.68229 86.2381 5.54948 85.8423 5.42969C85.4517 5.30469 85.0376 5.24219 84.6001 5.24219C83.4386 5.24219 82.4543 5.64583 81.647 6.45312C80.8397 7.25521 80.436 8.23698 80.436 9.39844C80.436 10.5599 80.8371 11.5443 81.6392 12.3516C82.4465 13.1589 83.4334 13.5625 84.6001 13.5625C85.0376 13.5625 85.4543 13.5026 85.8501 13.3828C86.2511 13.2578 86.5819 13.1094 86.8423 12.9375C87.1079 12.7656 87.3397 12.5964 87.5376 12.4297C87.7407 12.2578 87.8918 12.112 87.9907 11.9922L88.1157 11.7969L89.2407 12.9219C89.1991 12.9844 89.134 13.0677 89.0454 13.1719C88.9621 13.2708 88.772 13.4479 88.4751 13.7031C88.1834 13.9583 87.8709 14.1849 87.5376 14.3828C87.2095 14.5807 86.7772 14.7604 86.2407 14.9219C85.7095 15.0781 85.1626 15.1562 84.6001 15.1562C82.923 15.1562 81.5168 14.599 80.3813 13.4844C79.2459 12.3698 78.6782 11.0078 78.6782 9.39844C78.6782 7.78906 79.2459 6.42708 80.3813 5.3125C81.5168 4.19792 82.923 3.64062 84.6001 3.64062ZM96.9126 9.07812C96.9699 9.09896 97.0454 9.1276 97.1392 9.16406C97.2329 9.20573 97.3996 9.29948 97.6392 9.44531C97.8787 9.58594 98.0897 9.75 98.272 9.9375C98.4543 10.125 98.6183 10.388 98.7642 10.7266C98.9152 11.0599 98.9907 11.4167 98.9907 11.7969C98.9907 12.724 98.5975 13.5156 97.811 14.1719C97.0298 14.8281 95.9829 15.1562 94.6704 15.1562C94.1392 15.1562 93.6261 15.0938 93.1313 14.9688C92.6366 14.8385 92.2277 14.6875 91.9048 14.5156C91.5871 14.3385 91.3032 14.1589 91.0532 13.9766C90.8084 13.7943 90.6287 13.6406 90.5142 13.5156L90.3501 13.3203L91.4751 12.2031C91.5063 12.2344 91.5532 12.2812 91.6157 12.3438C91.6834 12.4062 91.8188 12.5156 92.022 12.6719C92.2303 12.8281 92.4491 12.9688 92.6782 13.0938C92.9074 13.2135 93.2043 13.3229 93.5688 13.4219C93.9334 13.5156 94.3006 13.5625 94.6704 13.5625C95.4725 13.5625 96.1001 13.3828 96.5532 13.0234C97.0063 12.6641 97.2329 12.2292 97.2329 11.7188C97.2329 11.2083 97.0063 10.776 96.5532 10.4219C96.1001 10.0625 95.4725 9.88281 94.6704 9.88281H93.311V8.28125H94.6704C95.3215 8.28125 95.8319 8.13281 96.2017 7.83594C96.5715 7.53385 96.7563 7.16927 96.7563 6.74219C96.7563 6.32552 96.5715 5.97135 96.2017 5.67969C95.8319 5.38802 95.3215 5.24219 94.6704 5.24219C94.2017 5.24219 93.7407 5.34375 93.2876 5.54688C92.8345 5.75 92.4959 5.94531 92.272 6.13281L91.9517 6.4375L90.8345 5.32031C90.8657 5.27865 90.9178 5.22135 90.9907 5.14844C91.0688 5.07031 91.2303 4.93229 91.4751 4.73438C91.7199 4.53646 91.9777 4.36719 92.2485 4.22656C92.5194 4.08073 92.8761 3.94792 93.3188 3.82812C93.7616 3.70312 94.2121 3.64062 94.6704 3.64062C95.8631 3.64062 96.8006 3.92448 97.4829 4.49219C98.1704 5.05469 98.5142 5.75781 98.5142 6.60156C98.5142 6.94531 98.4569 7.26562 98.3423 7.5625C98.2329 7.85938 98.1001 8.09635 97.9438 8.27344C97.7928 8.45052 97.6392 8.60417 97.4829 8.73438C97.3267 8.85938 97.1912 8.94792 97.0767 9L96.9126 9.07812ZM88.8345 34H87.0767V25.9219L80.8345 34H79.3188V22.7969H81.0767V30.8828L87.3188 22.7969H88.8345V34ZM93.0767 30.7969V34H91.4751V26.3203H93.0767V29.3594H96.8345V26.3203H98.436V34H96.8345V30.7969H93.0767ZM100.678 26.3203H104.358C105.092 26.3203 105.676 26.5104 106.108 26.8906C106.54 27.2656 106.756 27.7422 106.756 28.3203C106.756 28.6484 106.683 28.9479 106.538 29.2188C106.397 29.4844 106.251 29.6693 106.1 29.7734L105.881 29.9219C105.913 29.9323 105.957 29.9505 106.014 29.9766C106.071 30.0026 106.176 30.0703 106.327 30.1797C106.478 30.2839 106.608 30.401 106.717 30.5312C106.832 30.6562 106.933 30.8281 107.022 31.0469C107.116 31.2656 107.163 31.5026 107.163 31.7578C107.163 32.4193 106.926 32.9583 106.452 33.375C105.983 33.7917 105.34 34 104.522 34H100.678V26.3203ZM104.522 30.5625H102.28V32.6406H104.522C104.84 32.6406 105.092 32.5469 105.28 32.3594C105.467 32.1719 105.561 31.9193 105.561 31.6016C105.561 31.3151 105.465 31.0703 105.272 30.8672C105.079 30.6641 104.829 30.5625 104.522 30.5625ZM104.944 29.0703C105.09 28.9245 105.163 28.7292 105.163 28.4844C105.163 28.2344 105.09 28.0391 104.944 27.8984C104.798 27.7526 104.603 27.6797 104.358 27.6797H102.28V29.2812H104.358C104.603 29.2812 104.798 29.2109 104.944 29.0703ZM116.03 30.7188H110.03C110.113 31.2604 110.379 31.7292 110.827 32.125C111.28 32.5208 111.816 32.7188 112.436 32.7188C112.884 32.7188 113.301 32.6172 113.686 32.4141C114.077 32.2109 114.353 32.013 114.514 31.8203L114.756 31.5234L115.795 32.5625C115.764 32.6042 115.715 32.6641 115.647 32.7422C115.584 32.8151 115.446 32.9427 115.233 33.125C115.019 33.3021 114.793 33.4609 114.553 33.6016C114.314 33.737 114.001 33.8646 113.616 33.9844C113.236 34.099 112.842 34.1562 112.436 34.1562C111.347 34.1562 110.407 33.7578 109.616 32.9609C108.829 32.1589 108.436 31.1979 108.436 30.0781C108.436 29 108.819 28.0781 109.584 27.3125C110.355 26.5417 111.277 26.1562 112.35 26.1562C113.428 26.1562 114.324 26.5156 115.038 27.2344C115.756 27.9479 116.116 28.8438 116.116 29.9219L116.03 30.7188ZM112.35 27.5234C111.772 27.5234 111.285 27.6953 110.889 28.0391C110.499 28.3776 110.236 28.8177 110.1 29.3594H114.545C114.452 28.8177 114.209 28.3776 113.819 28.0391C113.428 27.6953 112.939 27.5234 112.35 27.5234ZM118.577 32.9688C117.785 32.1719 117.389 31.237 117.389 30.1641C117.389 29.0859 117.785 28.1484 118.577 27.3516C119.374 26.5547 120.311 26.1562 121.389 26.1562C121.988 26.1562 122.545 26.2865 123.061 26.5469C123.577 26.8021 123.946 27.0573 124.17 27.3125L124.506 27.6797L123.467 28.7188C123.415 28.6354 123.334 28.5339 123.225 28.4141C123.121 28.2891 122.889 28.1224 122.53 27.9141C122.176 27.7057 121.795 27.6016 121.389 27.6016C120.738 27.6016 120.173 27.849 119.694 28.3438C119.22 28.8385 118.983 29.4453 118.983 30.1641C118.983 30.8776 119.22 31.4818 119.694 31.9766C120.173 32.4714 120.738 32.7188 121.389 32.7188C121.795 32.7188 122.176 32.6172 122.53 32.4141C122.889 32.2109 123.147 32.013 123.303 31.8203L123.545 31.5234L124.584 32.5625C124.553 32.6042 124.506 32.6641 124.444 32.7422C124.381 32.8151 124.246 32.9427 124.038 33.125C123.829 33.3021 123.611 33.4609 123.381 33.6016C123.152 33.737 122.855 33.8646 122.491 33.9844C122.126 34.099 121.759 34.1562 121.389 34.1562C120.311 34.1562 119.374 33.7604 118.577 32.9688ZM125.381 27.7578V26.3203H132.256V27.7578H129.616V34H128.022V27.7578H125.381ZM84.6001 41.6406C85.1678 41.6406 85.7121 41.7161 86.2329 41.8672C86.7537 42.013 87.1834 42.1927 87.522 42.4062C87.8657 42.6198 88.1652 42.8307 88.4204 43.0391C88.6756 43.2474 88.8631 43.4271 88.9829 43.5781L89.1548 43.7969L88.0376 44.9219C88.0063 44.8802 87.9595 44.8229 87.897 44.75C87.8397 44.6719 87.7043 44.5339 87.4907 44.3359C87.2772 44.138 87.048 43.9688 86.8032 43.8281C86.5584 43.6823 86.2381 43.5495 85.8423 43.4297C85.4517 43.3047 85.0376 43.2422 84.6001 43.2422C83.4386 43.2422 82.4543 43.6458 81.647 44.4531C80.8397 45.2552 80.436 46.237 80.436 47.3984C80.436 48.5599 80.8371 49.5443 81.6392 50.3516C82.4465 51.1589 83.4334 51.5625 84.6001 51.5625C85.0376 51.5625 85.4543 51.5026 85.8501 51.3828C86.2511 51.2578 86.5819 51.1094 86.8423 50.9375C87.1079 50.7656 87.3397 50.5964 87.5376 50.4297C87.7407 50.2578 87.8918 50.112 87.9907 49.9922L88.1157 49.7969L89.2407 50.9219C89.1991 50.9844 89.134 51.0677 89.0454 51.1719C88.9621 51.2708 88.772 51.4479 88.4751 51.7031C88.1834 51.9583 87.8709 52.1849 87.5376 52.3828C87.2095 52.5807 86.7772 52.7604 86.2407 52.9219C85.7095 53.0781 85.1626 53.1562 84.6001 53.1562C82.923 53.1562 81.5168 52.599 80.3813 51.4844C79.2459 50.3698 78.6782 49.0078 78.6782 47.3984C78.6782 45.7891 79.2459 44.4271 80.3813 43.3125C81.5168 42.1979 82.923 41.6406 84.6001 41.6406ZM96.5142 45.3203H97.9517V53H96.3501V47.9609L92.3501 53H90.9126V45.3203H92.5142V50.3594L96.5142 45.3203ZM99.397 46.7578V45.3203H106.272V46.7578H103.631V53H102.038V46.7578H99.397ZM113.311 45.3203H114.749V53H113.147V47.9609L109.147 53H107.709V45.3203H109.311V50.3594L113.311 45.3203Z" fill="#393D46"/>
</svg>
