<svg width="24" height="24" viewBox="0 0 24 24" fill="none" xmlns="http://www.w3.org/2000/svg">
<path d="M3 9V20C3 20.2652 3.10536 20.5196 3.29289 20.7071C3.48043 20.8946 3.73478 21 4 21H20C20.2652 21 20.5196 20.8946 20.7071 20.7071C20.8946 20.5196 21 20.2652 21 20V9M3 9H21M3 9V5C3 4.73478 3.10536 4.48043 3.29289 4.29289C3.48043 4.10536 3.73478 4 4 4H20C20.2652 4 20.5196 4.10536 20.7071 4.29289C20.8946 4.48043 21 4.73478 21 5V9" stroke="#BBA590" stroke-width="1.5" stroke-linecap="round" stroke-linejoin="round"/>
<path d="M16 3V6M8 3V6" stroke="#BBA590" stroke-width="1.5" stroke-linecap="round" stroke-linejoin="round"/>
</svg>
