<svg width="19" height="25" viewBox="0 0 19 25" fill="none" xmlns="http://www.w3.org/2000/svg">
<path d="M9.5 8.33344C9.5 3.73126 7.39935 0 4.8125 0C2.22467 0 0.125 3.73126 0.125 8.33344C0.125 10.3362 1.38751 12.0331 3.15436 12.7034L2.72906 22.9166C2.72906 24.0672 3.66187 25 4.8125 25C5.96313 25 6.89593 24.0672 6.89593 22.9166L6.47064 12.7043C8.23877 12.0331 9.5 10.3362 9.5 8.33344ZM18.875 7.55219L18.6147 0H17.3125L17.0522 7.55219H16.0103L15.75 0H14.1875L13.9272 7.55219H12.8853L12.625 0H11.3228L11.0625 7.55219C11.0625 9.14093 12.0147 10.5019 13.3778 11.1125L12.8853 22.9166C12.8853 24.0672 13.8181 25 14.9687 25C16.1194 25 17.0522 24.0672 17.0522 22.9166L16.5597 11.1125C17.9228 10.5019 18.875 9.14093 18.875 7.55219Z" fill="#9E918C"/>
</svg>
