<svg width="23" height="23" viewBox="0 0 23 23" fill="none" xmlns="http://www.w3.org/2000/svg">
<path d="M21.7943 9.00242C21.51 8.7181 21.1646 8.576 20.7586 8.576H14.423V2.24023C14.423 1.83424 14.2808 1.48895 13.9966 1.20463C13.7123 0.920532 13.3673 0.77832 12.9607 0.77832H10.0369C9.63083 0.77832 9.2856 0.920372 9.00128 1.20469C8.71697 1.489 8.57486 1.83429 8.57486 2.24028V8.57605H2.2393C1.83331 8.57605 1.48803 8.71815 1.20371 9.00247C0.919395 9.28679 0.777344 9.63175 0.777344 10.038V12.9622C0.777344 13.3686 0.919342 13.7136 1.20366 13.9976C1.48797 14.2821 1.83326 14.4241 2.23925 14.4241H8.57481V20.7599C8.57481 21.1659 8.71691 21.5115 9.00123 21.7957C9.28555 22.0797 9.63078 22.2217 10.0368 22.2217H12.9609C13.3672 22.2217 13.7122 22.0797 13.9966 21.7957C14.281 21.5113 14.423 21.1659 14.423 20.7599V14.4241H20.7585C21.1649 14.4241 21.5101 14.2821 21.7943 13.9976C22.0785 13.7136 22.2207 13.3686 22.2207 12.9622V10.038C22.2206 9.63175 22.0788 9.28657 21.7943 9.00242Z" fill="#9E918C"/>
</svg>
