<svg width="20" height="21" viewBox="0 0 20 21" fill="none" xmlns="http://www.w3.org/2000/svg">
<path fill-rule="evenodd" clip-rule="evenodd" d="M3.47396 0.604329C3.47396 0.466196 3.41909 0.33372 3.32141 0.236045C3.22373 0.13837 3.09126 0.0834961 2.95313 0.0834961H2.80521C2.09437 0.0834961 1.41265 0.365874 0.910015 0.868511C0.407378 1.37115 0.125 2.05287 0.125 2.7637V16.4064C0.125 17.1173 0.407378 17.799 0.910015 18.3016C1.1589 18.5505 1.45436 18.7479 1.77954 18.8826C2.10471 19.0173 2.45324 19.0866 2.80521 19.0866H7.58021C7.76771 19.0866 7.91354 18.922 7.91354 18.7335V18.3585C7.91357 18.2516 7.8807 18.1472 7.81939 18.0597C7.75808 17.9721 7.6713 17.9055 7.57083 17.8689L7.19271 17.7304C7.14292 17.7122 7.0936 17.6927 7.04479 17.672C6.97472 17.6417 6.89927 17.6258 6.82292 17.6252H2.80521C2.64516 17.6252 2.48668 17.5936 2.33881 17.5324C2.19095 17.4711 2.05659 17.3814 1.94342 17.2682C1.83025 17.155 1.74048 17.0207 1.67923 16.8728C1.61798 16.7249 1.58646 16.5665 1.58646 16.4064C1.58646 16.2464 1.61798 16.0879 1.67923 15.94C1.74048 15.7922 1.83025 15.6578 1.94342 15.5446C2.05659 15.4315 2.19095 15.3417 2.33881 15.2804C2.48668 15.2192 2.64516 15.1877 2.80521 15.1877H4.76979C5.06667 15.1877 5.3 14.9377 5.33958 14.6418C5.40523 14.1255 5.61337 13.6376 5.94067 13.2328C6.26797 12.828 6.7015 12.5224 7.19271 12.3502L12.3885 10.447C13.0248 10.2139 13.7231 10.2139 14.3594 10.447L14.5313 10.5095C14.6099 10.5384 14.6944 10.5478 14.7775 10.537C14.8605 10.5262 14.9398 10.4955 15.0085 10.4476C15.0772 10.3996 15.1333 10.3358 15.1721 10.2616C15.2109 10.1873 15.2312 10.1048 15.2313 10.021V1.7887C15.2313 0.847038 14.4677 0.0834961 13.526 0.0834961H5.55729C5.41916 0.0834961 5.28668 0.13837 5.18901 0.236045C5.09133 0.33372 5.03646 0.466196 5.03646 0.604329V11.5522C5.03646 11.7594 4.95415 11.9582 4.80764 12.1047C4.66112 12.2512 4.46241 12.3335 4.25521 12.3335C4.04801 12.3335 3.84929 12.2512 3.70278 12.1047C3.55627 11.9582 3.47396 11.7594 3.47396 11.5522V0.604329Z" fill="#9E918C"/>
<path fill-rule="evenodd" clip-rule="evenodd" d="M13.3776 11.8364C13.5286 11.8364 13.6797 11.8625 13.8224 11.9156L19.0193 13.8187C19.9672 14.1656 20.1255 15.3406 19.4953 15.9646V17.6562C19.4953 17.8634 19.413 18.0621 19.2665 18.2087C19.12 18.3552 18.9213 18.4375 18.7141 18.4375C18.5069 18.4375 18.3082 18.3552 18.1616 18.2087C18.0151 18.0621 17.9328 17.8634 17.9328 17.6562V16.6614L17.2745 16.9031V18.7344C17.2745 19.1802 17.0682 19.5458 16.8141 19.8125C16.5513 20.0752 16.24 20.2843 15.8974 20.4281C15.2109 20.7333 14.3193 20.9021 13.3745 20.9021C12.4307 20.9021 11.538 20.7333 10.8526 20.4281C10.5101 20.2845 10.1988 20.0758 9.93594 19.8135C9.68177 19.5458 9.47552 19.1802 9.47552 18.7344V16.9031L7.72969 16.2635C6.5901 15.8469 6.5901 14.2354 7.72969 13.8187L12.9255 11.9156C13.0703 11.8627 13.2234 11.8358 13.3776 11.8364ZM13.8224 18.1666L15.712 17.475V18.7C15.7027 18.7125 15.6927 18.7243 15.6818 18.7354C15.6161 18.8041 15.4839 18.9021 15.262 19.001C14.8193 19.1979 14.1526 19.3396 13.3745 19.3396C12.5964 19.3396 11.9297 19.1979 11.487 19.001C11.3318 18.9393 11.1894 18.8492 11.0672 18.7354C11.0567 18.7246 11.047 18.7131 11.038 18.701V17.476L12.9255 18.1666C13.2151 18.2727 13.5328 18.2727 13.8224 18.1666ZM11.0307 18.6896L11.0297 18.6875V18.6896H11.0307Z" fill="#9E918C"/>
</svg>
