<svg width="23" height="23" viewBox="0 0 23 23" fill="none" xmlns="http://www.w3.org/2000/svg">
<path d="M17.3812 11.4334C15.5898 11.1278 13.7334 11.2701 11.9638 11.8734C11.7087 13.3661 11.1837 14.7871 10.3991 16.1025C10.0562 16.6781 9.66744 17.2252 9.23674 17.7385C8.30971 18.912 7.03258 19.8727 5.70703 20.6157C7.31826 21.6419 9.21986 22.2525 11.2611 22.2967C13.1272 20.5768 14.7134 18.3775 15.8651 15.9074C16.5436 14.4522 17.0523 12.9499 17.3812 11.4334ZM7.60028 2.2997C7.60028 3.25453 7.72129 4.1908 7.95442 5.09046C9.50985 4.56894 11.1477 4.21801 12.8331 4.04625C15.1452 3.81063 17.454 3.92739 19.6171 4.38171C17.638 2.12719 14.7352 0.703613 11.4996 0.703613C10.1379 0.703613 8.83544 0.956356 7.63558 1.41637C7.61239 1.7099 7.60028 2.0052 7.60028 2.2997Z" fill="#9E918C"/>
<path d="M12.961 5.30502C11.3636 5.4678 9.81289 5.8006 8.34199 6.29503C8.99401 7.9813 10.0598 9.49569 11.4736 10.7033C14.9289 9.49864 18.6896 9.87653 21.8406 11.7562C21.9904 11.8457 22.1383 11.9384 22.2842 12.0341C22.2928 11.8576 22.2974 11.6801 22.2974 11.5016C22.2974 9.48257 21.7427 7.59341 20.7783 5.97704C18.3526 5.26221 15.6617 5.02972 12.961 5.30502ZM21.1922 12.8429C20.3723 12.3537 19.5062 11.978 18.6141 11.7173C18.2652 13.3203 17.7275 14.9067 17.0115 16.4421C16.0147 18.58 14.7077 20.529 13.1804 22.1692C17.7045 21.4619 21.2973 17.9459 22.1195 13.4609C21.8208 13.2397 21.5114 13.0334 21.1922 12.8429ZM4.56262 19.7764C5.73987 19.2198 6.79462 18.4702 7.69465 17.5539C6.51167 16.4388 5.43815 15.1732 4.49724 13.7833C3.14369 11.7839 2.1266 9.60725 1.50736 7.40213C0.988164 8.6663 0.701172 10.0503 0.701172 11.5016C0.701172 14.8241 2.20223 17.7956 4.56262 19.7764ZM5.54516 13.0739C6.42495 14.3736 7.42664 15.557 8.52864 16.6006C8.81311 16.2349 9.07473 15.852 9.312 15.4541C10.0069 14.2892 10.4747 13.0324 10.7068 11.7132C7.92344 9.36388 6.33452 5.9535 6.33452 2.29962C6.33452 2.20471 6.336 2.10968 6.33819 2.01465C4.73484 2.88874 3.37758 4.15735 2.39689 5.69021C2.90162 8.22493 3.98619 10.7711 5.54516 13.0739Z" fill="#9E918C"/>
</svg>
