<svg width="25" height="25" viewBox="0 0 25 25" fill="none" xmlns="http://www.w3.org/2000/svg">
<path d="M9.95474 21.2139C10.804 22.8239 11.9772 23.8879 12.0449 23.9486C12.1697 24.0605 12.3315 24.1224 12.4991 24.1222C12.6616 24.1222 12.8242 24.0644 12.9535 23.9486C13.0213 23.8879 14.1942 22.8239 15.0433 21.2139C14.0439 20.8163 13.18 20.2707 12.4991 19.7541C11.8181 20.2708 10.9544 20.8163 9.95474 21.2139ZM22.5351 15.3159C22.4092 15.459 22.2788 15.5981 22.1442 15.733C20.806 17.071 19.0302 18.0279 16.8655 18.5769C15.7159 18.8685 14.6507 18.9925 13.8481 19.0423C14.9124 19.7535 16.3559 20.4382 17.9697 20.4382C21.2576 20.4382 23.8394 17.5969 23.9477 17.4759C24.0595 17.351 24.1213 17.1893 24.1213 17.0217C24.1213 16.8541 24.0595 16.6924 23.9477 16.5675C23.9123 16.5279 23.3894 15.9505 22.5351 15.3159H22.5351ZM8.13297 18.5771C5.96831 18.0281 4.19226 17.0712 2.85408 15.733C2.71939 15.5981 2.58897 15.459 2.46302 15.3159C1.60889 15.9505 1.08602 16.5281 1.05052 16.5675C0.819098 16.8261 0.819098 17.2175 1.05052 17.4761C1.1589 17.597 3.74068 20.4382 7.02834 20.4382C8.64235 20.4382 10.0857 19.7535 11.1502 19.0423C10.3476 18.9925 9.2824 18.8685 8.13297 18.5771ZM12.0449 17.5291C12.1697 17.6411 12.3315 17.703 12.4991 17.7029C12.6616 17.7029 12.8241 17.6449 12.9535 17.5291C13.1206 17.3796 17.0459 13.8128 17.0459 9.29033C17.0459 4.7681 13.1206 1.20125 12.9535 1.05155C12.8287 0.939589 12.6668 0.877749 12.4991 0.87793C12.3315 0.877751 12.1697 0.939594 12.0449 1.05155C11.8777 1.20125 7.9524 4.7681 7.9524 9.29033C7.9524 13.8126 11.8778 17.3796 12.0449 17.5291ZM19.7385 4.37931C19.4083 3.23591 19.0529 2.48762 19.0303 2.44117C18.8801 2.12812 18.5185 1.97842 18.1909 2.09338C18.1423 2.11054 17.3621 2.38796 16.3203 2.96295C16.7712 3.64827 17.1532 4.34562 17.4614 5.04529C18.2398 4.74308 19.0142 4.52919 19.7385 4.37931ZM8.67799 2.96295C7.63634 2.38796 6.85617 2.11054 6.80737 2.09338C6.47982 1.97824 6.11814 2.12812 5.96795 2.44099C5.94561 2.48762 5.59001 3.23591 5.25979 4.37931C5.98393 4.52901 6.75842 4.7429 7.53686 5.04511C7.84515 4.3458 8.22713 3.64831 8.67799 2.96295Z" fill="#9E918C"/>
<path d="M18.4089 9.29051C18.4089 10.4903 18.1718 11.7215 17.7037 12.9496C17.3371 13.9119 16.8279 14.8759 16.1902 15.815C15.7039 16.5311 15.2119 17.1301 14.8054 17.5838C16.6805 17.3413 19.2964 16.6558 21.1823 14.7701C24.38 11.5724 24.1265 6.27453 24.1141 6.05056C24.1049 5.88319 24.0343 5.7251 23.9157 5.60657C23.7972 5.48804 23.6391 5.41739 23.4718 5.40814C23.4411 5.40655 23.2911 5.39893 23.0473 5.39893C22.1651 5.39893 20.0562 5.49686 17.9419 6.32016C18.2521 7.31868 18.4089 8.31487 18.4089 9.29051ZM10.1953 17.5839C9.78879 17.1301 9.2968 16.5311 8.81048 15.815C8.1727 14.8759 7.66336 13.9119 7.29673 12.9496C6.82889 11.7215 6.59161 10.4903 6.59161 9.29051C6.59161 8.31487 6.74835 7.31863 7.05872 6.32012C4.94447 5.49686 2.8357 5.39893 1.95351 5.39893C1.70947 5.39893 1.55941 5.40637 1.52872 5.40814C1.36135 5.41739 1.20327 5.48804 1.08474 5.60657C0.966221 5.7251 0.89558 5.88319 0.886347 6.05056C0.873952 6.27453 0.620509 11.5724 3.81823 14.7702C5.70429 16.656 8.32012 17.3413 10.1953 17.5839Z" fill="#9E918C"/>
</svg>
