<svg width="25" height="21" viewBox="0 0 25 21" fill="none" xmlns="http://www.w3.org/2000/svg">
<path d="M23.0859 7.85167H20.8281L16.1875 0.804791C16.019 0.55942 15.761 0.389925 15.4689 0.332719C15.1768 0.275513 14.8739 0.335161 14.6253 0.498848C14.3767 0.662535 14.2022 0.917201 14.1394 1.20813C14.0765 1.49907 14.1302 1.80306 14.2891 2.05479L18.1172 7.85167H6.88281L10.7109 2.05479C10.8698 1.80306 10.9235 1.49907 10.8606 1.20813C10.7978 0.917201 10.6233 0.662535 10.3747 0.498848C10.1261 0.335161 9.8232 0.275513 9.5311 0.332719C9.239 0.389925 8.98099 0.55942 8.8125 0.804791L4.17188 7.85167H1.91406C1.28906 7.85167 0.78125 8.35948 0.78125 8.98448C0.78125 9.61729 1.28906 10.1251 1.91406 10.1251H2.42187L4.17188 18.0392C4.52344 19.6095 5.89063 20.7032 7.5 20.7032H17.5C19.1094 20.7032 20.4766 19.6095 20.8281 18.0392L22.5781 10.1251H23.0859C23.7109 10.1251 24.2188 9.61729 24.2188 8.98448C24.2188 8.35948 23.7109 7.85167 23.0859 7.85167ZM9.85156 16.086C9.84067 16.3792 9.71656 16.6567 9.5053 16.8603C9.29405 17.0638 9.01211 17.1776 8.71875 17.1776C8.42539 17.1776 8.14345 17.0638 7.9322 16.8603C7.72094 16.6567 7.59683 16.3792 7.58594 16.086V12.4767C7.59683 12.1835 7.72094 11.906 7.9322 11.7024C8.14345 11.4989 8.42539 11.3851 8.71875 11.3851C9.01211 11.3851 9.29405 11.4989 9.5053 11.7024C9.71656 11.906 9.84067 12.1835 9.85156 12.4767V16.086ZM13.6328 16.086C13.6219 16.3792 13.4978 16.6567 13.2866 16.8603C13.0753 17.0638 12.7934 17.1776 12.5 17.1776C12.2066 17.1776 11.9247 17.0638 11.7134 16.8603C11.5022 16.6567 11.3781 16.3792 11.3672 16.086V12.4767C11.3781 12.1835 11.5022 11.906 11.7134 11.7024C11.9247 11.4989 12.2066 11.3851 12.5 11.3851C12.7934 11.3851 13.0753 11.4989 13.2866 11.7024C13.4978 11.906 13.6219 12.1835 13.6328 12.4767V16.086ZM17.4141 16.086C17.4032 16.3792 17.2791 16.6567 17.0678 16.8603C16.8566 17.0638 16.5746 17.1776 16.2812 17.1776C15.9879 17.1776 15.7059 17.0638 15.4947 16.8603C15.2834 16.6567 15.1593 16.3792 15.1484 16.086V12.4767C15.1593 12.1835 15.2834 11.906 15.4947 11.7024C15.7059 11.4989 15.9879 11.3851 16.2812 11.3851C16.5746 11.3851 16.8566 11.4989 17.0678 11.7024C17.2791 11.906 17.4032 12.1835 17.4141 12.4767V16.086Z" fill="#9E918C"/>
</svg>
