<svg width="25" height="25" viewBox="0 0 25 25" fill="none" xmlns="http://www.w3.org/2000/svg">
<path d="M19.8725 4.20635C19.2674 4.20534 18.6681 4.3238 18.1088 4.55493C17.5496 4.78605 17.0415 5.12531 16.6137 5.55323C16.5768 5.58984 16.5475 5.63337 16.5275 5.68133C16.5074 5.72929 16.4971 5.78073 16.497 5.8327C16.4969 5.88467 16.5071 5.93615 16.5269 5.98418C16.5467 6.03221 16.5759 6.07585 16.6126 6.1126L18.9189 8.41885H8.00585L6.24335 4.89333L11.0741 2.85896C11.1509 2.82644 11.2155 2.77045 11.2585 2.69901C11.3016 2.62757 11.321 2.54434 11.3138 2.46123C11.3067 2.37811 11.2735 2.29938 11.2189 2.23629C11.1644 2.1732 11.0912 2.129 11.01 2.11L4.16471 0.530309C4.08071 0.511287 3.9928 0.520105 3.91426 0.555432C3.83571 0.590759 3.77079 0.650677 3.72929 0.726143L0.569913 6.51833C0.530588 6.59023 0.514609 6.67258 0.524195 6.75396C0.53378 6.83535 0.568454 6.91173 0.623407 6.97253C0.67836 7.03332 0.750868 7.0755 0.830876 7.09323C0.910884 7.11096 0.994425 7.10335 1.06991 7.07146L5.51366 5.20062L7.12304 8.41937H5.15741C5.09938 8.41926 5.04203 8.43194 4.98946 8.45652C4.93689 8.4811 4.89038 8.51696 4.85325 8.56156C3.87229 9.7493 3.18943 11.1543 2.86158 12.6595C4.13559 11.7166 5.65315 11.1586 7.2345 11.0517C8.34752 11.0517 8.96314 11.6803 9.55846 12.2881C10.2314 12.9746 10.9267 13.6845 12.5001 13.6845C14.0736 13.6845 14.7689 12.9746 15.4418 12.2881C16.0376 11.6803 16.6527 11.0517 17.7657 11.0517C19.3439 11.0517 20.8413 11.8152 22.1355 12.6454C22.0246 12.1492 21.8753 11.6623 21.6892 11.1892L22.573 12.0735C22.6097 12.1102 22.6532 12.1393 22.7011 12.1591C22.749 12.179 22.8004 12.1892 22.8522 12.1892C22.9042 12.1891 22.9562 12.1788 23.0042 12.1587C23.0522 12.1387 23.0958 12.1094 23.1324 12.0725C23.776 11.4276 24.214 10.6064 24.3912 9.71268C24.5684 8.81897 24.4767 7.89279 24.1279 7.05112C23.779 6.20945 23.1886 5.49003 22.4311 4.98371C21.6736 4.47739 20.7836 4.20689 19.8725 4.20635Z" fill="#9E918C"/>
<path d="M17.7655 11.8418C16.9848 11.8418 16.553 12.2825 16.0061 12.8408C15.5838 13.3612 15.0487 13.7787 14.4413 14.0617C13.8338 14.3448 13.1699 14.486 12.4999 14.4746C11.8299 14.4859 11.1661 14.3447 10.5588 14.0616C9.95142 13.7785 9.41639 13.3611 8.99414 12.8408C8.44727 12.2825 8.01497 11.8418 7.23425 11.8418C5.55925 11.8418 3.96654 12.8184 2.67747 13.7819C2.64622 14.0944 2.62695 14.409 2.62695 14.7246C2.65367 17.3255 3.70561 19.8108 5.55424 21.6406C7.40287 23.4703 9.89884 24.4967 12.4999 24.4967C15.1009 24.4967 17.5969 23.4703 19.4455 21.6406C21.2941 19.8108 22.3461 17.3255 22.3728 14.7246C22.3706 14.3807 22.3499 14.0372 22.3108 13.6955C21.2967 13.0455 19.5978 11.8418 17.7655 11.8418ZM10.2374 21.6397C10.2002 21.7376 10.1258 21.8168 10.0305 21.8599C9.9351 21.903 9.82654 21.9067 9.72852 21.87C7.84966 21.1575 6.31764 19.7484 5.45091 17.9356C5.4278 17.8885 5.41429 17.8373 5.41117 17.7849C5.40804 17.7326 5.41536 17.6801 5.43271 17.6307C5.45005 17.5812 5.47707 17.5356 5.51219 17.4967C5.54731 17.4577 5.58983 17.4261 5.63727 17.4038C5.68471 17.3814 5.73612 17.3687 5.78851 17.3665C5.84091 17.3642 5.89323 17.3723 5.94244 17.3905C5.99165 17.4086 6.03676 17.4363 6.07515 17.4721C6.11353 17.5078 6.14442 17.5508 6.16602 17.5986C6.94405 19.2265 8.31988 20.4917 10.0072 21.1309C10.105 21.168 10.1842 21.2424 10.2273 21.3378C10.2705 21.4332 10.2741 21.5417 10.2374 21.6397Z" fill="#9E918C"/>
</svg>
