<svg width="133" height="57" viewBox="0 0 133 57" fill="none" xmlns="http://www.w3.org/2000/svg">
<path d="M15.6367 52.8488L26.3828 52.9056C27.2357 50.9156 28.0317 48.8688 28.8277 46.765C29.6237 44.775 30.4765 42.8418 31.2157 40.6812C32.6371 36.758 34.5703 32.5506 36.1054 28.5706C36.9583 26.4669 37.6975 24.4768 38.4935 22.43C39.2895 20.5537 40.0286 18.2794 40.9383 16.3462C41.6206 14.9248 45.7144 4.69037 45.7712 4.06494H35.9349L15.6367 52.8488ZM31.1588 52.8488H41.8481L50.2061 31.2997C50.9453 29.4803 51.7413 27.6608 52.3667 25.9551C54.0156 21.3496 54.0156 22.6574 53.1627 20.4399L48.7278 9.9213C48.2161 10.3762 37.4132 37.4404 35.48 41.989C34.684 43.9221 34.0586 45.571 33.2626 47.3904C32.8646 48.4139 31.2157 52.1096 31.1588 52.8488Z" fill="white"/>
<path d="M56.7441 51.5978C57.4833 53.2467 57.1421 52.9055 61.6339 52.9055C63.6807 52.9055 65.7276 52.8487 67.7176 52.9055C67.7176 52.2801 56.8578 27.4333 56.801 27.3765C56.3461 27.8313 53.1052 37.0991 52.3092 39.4303C51.9112 40.3969 52.1955 40.6811 52.5367 41.5909C53.9012 44.9454 55.2658 48.2432 56.7441 51.5978Z" fill="#FF2E17"/>
<path d="M0 52.8488L10.7461 52.9056C11.5421 50.9156 12.3381 48.8688 13.1341 46.765C13.9301 44.775 14.783 42.8418 15.579 40.6812C17.0004 36.758 18.8767 32.5506 20.4119 28.5706C21.2647 26.4669 22.0039 24.4768 22.8567 22.43C23.5959 20.5537 24.3919 18.2794 25.3016 16.3462C25.927 14.9248 30.0776 4.69037 30.0776 4.06494H20.2981L0 52.8488Z" fill="white"/>
<path d="M84.5996 3.64062C85.1673 3.64062 85.7116 3.71615 86.2324 3.86719C86.7533 4.01302 87.1829 4.19271 87.5215 4.40625C87.8652 4.61979 88.1647 4.83073 88.4199 5.03906C88.6751 5.2474 88.8626 5.42708 88.9824 5.57812L89.1543 5.79688L88.0371 6.92188C88.0059 6.88021 87.959 6.82292 87.8965 6.75C87.8392 6.67188 87.7038 6.53385 87.4902 6.33594C87.2767 6.13802 87.0475 5.96875 86.8027 5.82812C86.5579 5.68229 86.2376 5.54948 85.8418 5.42969C85.4512 5.30469 85.0371 5.24219 84.5996 5.24219C83.4382 5.24219 82.4538 5.64583 81.6465 6.45312C80.8392 7.25521 80.4355 8.23698 80.4355 9.39844C80.4355 10.5599 80.8366 11.5443 81.6387 12.3516C82.446 13.1589 83.4329 13.5625 84.5996 13.5625C85.0371 13.5625 85.4538 13.5026 85.8496 13.3828C86.2507 13.2578 86.5814 13.1094 86.8418 12.9375C87.1074 12.7656 87.3392 12.5964 87.5371 12.4297C87.7402 12.2578 87.8913 12.112 87.9902 11.9922L88.1152 11.7969L89.2402 12.9219C89.1986 12.9844 89.1335 13.0677 89.0449 13.1719C88.9616 13.2708 88.7715 13.4479 88.4746 13.7031C88.1829 13.9583 87.8704 14.1849 87.5371 14.3828C87.209 14.5807 86.7767 14.7604 86.2402 14.9219C85.709 15.0781 85.1621 15.1562 84.5996 15.1562C82.9225 15.1562 81.5163 14.599 80.3809 13.4844C79.2454 12.3698 78.6777 11.0078 78.6777 9.39844C78.6777 7.78906 79.2454 6.42708 80.3809 5.3125C81.5163 4.19792 82.9225 3.64062 84.5996 3.64062ZM96.9121 9.07812C96.9694 9.09896 97.0449 9.1276 97.1387 9.16406C97.2324 9.20573 97.3991 9.29948 97.6387 9.44531C97.8783 9.58594 98.0892 9.75 98.2715 9.9375C98.4538 10.125 98.6178 10.388 98.7637 10.7266C98.9147 11.0599 98.9902 11.4167 98.9902 11.7969C98.9902 12.724 98.597 13.5156 97.8105 14.1719C97.0293 14.8281 95.9824 15.1562 94.6699 15.1562C94.1387 15.1562 93.6257 15.0938 93.1309 14.9688C92.6361 14.8385 92.2272 14.6875 91.9043 14.5156C91.5866 14.3385 91.3027 14.1589 91.0527 13.9766C90.8079 13.7943 90.6283 13.6406 90.5137 13.5156L90.3496 13.3203L91.4746 12.2031C91.5059 12.2344 91.5527 12.2812 91.6152 12.3438C91.6829 12.4062 91.8184 12.5156 92.0215 12.6719C92.2298 12.8281 92.4486 12.9688 92.6777 13.0938C92.9069 13.2135 93.2038 13.3229 93.5684 13.4219C93.9329 13.5156 94.3001 13.5625 94.6699 13.5625C95.472 13.5625 96.0996 13.3828 96.5527 13.0234C97.0059 12.6641 97.2324 12.2292 97.2324 11.7188C97.2324 11.2083 97.0059 10.776 96.5527 10.4219C96.0996 10.0625 95.472 9.88281 94.6699 9.88281H93.3105V8.28125H94.6699C95.321 8.28125 95.8314 8.13281 96.2012 7.83594C96.571 7.53385 96.7559 7.16927 96.7559 6.74219C96.7559 6.32552 96.571 5.97135 96.2012 5.67969C95.8314 5.38802 95.321 5.24219 94.6699 5.24219C94.2012 5.24219 93.7402 5.34375 93.2871 5.54688C92.834 5.75 92.4954 5.94531 92.2715 6.13281L91.9512 6.4375L90.834 5.32031C90.8652 5.27865 90.9173 5.22135 90.9902 5.14844C91.0684 5.07031 91.2298 4.93229 91.4746 4.73438C91.7194 4.53646 91.9772 4.36719 92.248 4.22656C92.5189 4.08073 92.8757 3.94792 93.3184 3.82812C93.7611 3.70312 94.2116 3.64062 94.6699 3.64062C95.8626 3.64062 96.8001 3.92448 97.4824 4.49219C98.1699 5.05469 98.5137 5.75781 98.5137 6.60156C98.5137 6.94531 98.4564 7.26562 98.3418 7.5625C98.2324 7.85938 98.0996 8.09635 97.9434 8.27344C97.7923 8.45052 97.6387 8.60417 97.4824 8.73438C97.3262 8.85938 97.1908 8.94792 97.0762 9L96.9121 9.07812ZM88.834 34H87.0762V25.9219L80.834 34H79.3184V22.7969H81.0762V30.8828L87.3184 22.7969H88.834V34ZM93.0762 30.7969V34H91.4746V26.3203H93.0762V29.3594H96.834V26.3203H98.4355V34H96.834V30.7969H93.0762ZM100.678 26.3203H104.357C105.092 26.3203 105.675 26.5104 106.107 26.8906C106.54 27.2656 106.756 27.7422 106.756 28.3203C106.756 28.6484 106.683 28.9479 106.537 29.2188C106.396 29.4844 106.251 29.6693 106.1 29.7734L105.881 29.9219C105.912 29.9323 105.956 29.9505 106.014 29.9766C106.071 30.0026 106.175 30.0703 106.326 30.1797C106.477 30.2839 106.607 30.401 106.717 30.5312C106.831 30.6562 106.933 30.8281 107.021 31.0469C107.115 31.2656 107.162 31.5026 107.162 31.7578C107.162 32.4193 106.925 32.9583 106.451 33.375C105.982 33.7917 105.339 34 104.521 34H100.678V26.3203ZM104.521 30.5625H102.279V32.6406H104.521C104.839 32.6406 105.092 32.5469 105.279 32.3594C105.467 32.1719 105.561 31.9193 105.561 31.6016C105.561 31.3151 105.464 31.0703 105.271 30.8672C105.079 30.6641 104.829 30.5625 104.521 30.5625ZM104.943 29.0703C105.089 28.9245 105.162 28.7292 105.162 28.4844C105.162 28.2344 105.089 28.0391 104.943 27.8984C104.798 27.7526 104.602 27.6797 104.357 27.6797H102.279V29.2812H104.357C104.602 29.2812 104.798 29.2109 104.943 29.0703ZM116.029 30.7188H110.029C110.113 31.2604 110.378 31.7292 110.826 32.125C111.279 32.5208 111.816 32.7188 112.436 32.7188C112.883 32.7188 113.3 32.6172 113.686 32.4141C114.076 32.2109 114.352 32.013 114.514 31.8203L114.756 31.5234L115.795 32.5625C115.764 32.6042 115.714 32.6641 115.646 32.7422C115.584 32.8151 115.446 32.9427 115.232 33.125C115.019 33.3021 114.792 33.4609 114.553 33.6016C114.313 33.737 114.001 33.8646 113.615 33.9844C113.235 34.099 112.842 34.1562 112.436 34.1562C111.347 34.1562 110.407 33.7578 109.615 32.9609C108.829 32.1589 108.436 31.1979 108.436 30.0781C108.436 29 108.818 28.0781 109.584 27.3125C110.355 26.5417 111.277 26.1562 112.35 26.1562C113.428 26.1562 114.324 26.5156 115.037 27.2344C115.756 27.9479 116.115 28.8438 116.115 29.9219L116.029 30.7188ZM112.35 27.5234C111.771 27.5234 111.285 27.6953 110.889 28.0391C110.498 28.3776 110.235 28.8177 110.1 29.3594H114.545C114.451 28.8177 114.209 28.3776 113.818 28.0391C113.428 27.6953 112.938 27.5234 112.35 27.5234ZM118.576 32.9688C117.785 32.1719 117.389 31.237 117.389 30.1641C117.389 29.0859 117.785 28.1484 118.576 27.3516C119.373 26.5547 120.311 26.1562 121.389 26.1562C121.988 26.1562 122.545 26.2865 123.061 26.5469C123.576 26.8021 123.946 27.0573 124.17 27.3125L124.506 27.6797L123.467 28.7188C123.415 28.6354 123.334 28.5339 123.225 28.4141C123.12 28.2891 122.889 28.1224 122.529 27.9141C122.175 27.7057 121.795 27.6016 121.389 27.6016C120.738 27.6016 120.173 27.849 119.693 28.3438C119.219 28.8385 118.982 29.4453 118.982 30.1641C118.982 30.8776 119.219 31.4818 119.693 31.9766C120.173 32.4714 120.738 32.7188 121.389 32.7188C121.795 32.7188 122.175 32.6172 122.529 32.4141C122.889 32.2109 123.146 32.013 123.303 31.8203L123.545 31.5234L124.584 32.5625C124.553 32.6042 124.506 32.6641 124.443 32.7422C124.381 32.8151 124.245 32.9427 124.037 33.125C123.829 33.3021 123.61 33.4609 123.381 33.6016C123.152 33.737 122.855 33.8646 122.49 33.9844C122.126 34.099 121.758 34.1562 121.389 34.1562C120.311 34.1562 119.373 33.7604 118.576 32.9688ZM125.381 27.7578V26.3203H132.256V27.7578H129.615V34H128.021V27.7578H125.381ZM84.5996 41.6406C85.1673 41.6406 85.7116 41.7161 86.2324 41.8672C86.7533 42.013 87.1829 42.1927 87.5215 42.4062C87.8652 42.6198 88.1647 42.8307 88.4199 43.0391C88.6751 43.2474 88.8626 43.4271 88.9824 43.5781L89.1543 43.7969L88.0371 44.9219C88.0059 44.8802 87.959 44.8229 87.8965 44.75C87.8392 44.6719 87.7038 44.5339 87.4902 44.3359C87.2767 44.138 87.0475 43.9688 86.8027 43.8281C86.5579 43.6823 86.2376 43.5495 85.8418 43.4297C85.4512 43.3047 85.0371 43.2422 84.5996 43.2422C83.4382 43.2422 82.4538 43.6458 81.6465 44.4531C80.8392 45.2552 80.4355 46.237 80.4355 47.3984C80.4355 48.5599 80.8366 49.5443 81.6387 50.3516C82.446 51.1589 83.4329 51.5625 84.5996 51.5625C85.0371 51.5625 85.4538 51.5026 85.8496 51.3828C86.2507 51.2578 86.5814 51.1094 86.8418 50.9375C87.1074 50.7656 87.3392 50.5964 87.5371 50.4297C87.7402 50.2578 87.8913 50.112 87.9902 49.9922L88.1152 49.7969L89.2402 50.9219C89.1986 50.9844 89.1335 51.0677 89.0449 51.1719C88.9616 51.2708 88.7715 51.4479 88.4746 51.7031C88.1829 51.9583 87.8704 52.1849 87.5371 52.3828C87.209 52.5807 86.7767 52.7604 86.2402 52.9219C85.709 53.0781 85.1621 53.1562 84.5996 53.1562C82.9225 53.1562 81.5163 52.599 80.3809 51.4844C79.2454 50.3698 78.6777 49.0078 78.6777 47.3984C78.6777 45.7891 79.2454 44.4271 80.3809 43.3125C81.5163 42.1979 82.9225 41.6406 84.5996 41.6406ZM96.5137 45.3203H97.9512V53H96.3496V47.9609L92.3496 53H90.9121V45.3203H92.5137V50.3594L96.5137 45.3203ZM99.3965 46.7578V45.3203H106.271V46.7578H103.631V53H102.037V46.7578H99.3965ZM113.311 45.3203H114.748V53H113.146V47.9609L109.146 53H107.709V45.3203H109.311V50.3594L113.311 45.3203Z" fill="white"/>
</svg>
