<svg width="27" height="26" viewBox="0 0 27 26" fill="none" xmlns="http://www.w3.org/2000/svg">
<g clip-path="url(#clip0_80_15302)">
<path d="M23.7578 7.36328H3.24219C1.98215 7.36328 0.957031 8.3884 0.957031 9.64844V18.7891C0.957031 20.0491 1.98215 21.0742 3.24219 21.0742H23.7578C25.0178 21.0742 26.043 20.0491 26.043 18.7891V9.64844C26.043 8.3884 25.0178 7.36328 23.7578 7.36328ZM6.98685 15.4039C6.7921 15.4039 6.45938 15.4053 6.14794 15.4068V17.1637C6.14794 17.5844 5.80689 17.9254 5.38622 17.9254C4.96555 17.9254 4.6245 17.5844 4.6245 17.1637L4.61328 11.3774C4.61295 11.2772 4.63241 11.1779 4.67055 11.0852C4.70868 10.9925 4.76474 10.9082 4.83551 10.8372C4.90627 10.7662 4.99035 10.7099 5.08293 10.6715C5.17551 10.6331 5.27476 10.6133 5.375 10.6133H6.98685C8.32524 10.6133 9.41414 11.6878 9.41414 13.0086C9.41414 14.3294 8.32524 15.4039 6.98685 15.4039ZM13.5258 17.7418C13.0722 17.7497 11.9374 17.754 11.8893 17.7542H11.8864C11.6848 17.7542 11.4915 17.6744 11.3487 17.5321C11.2059 17.3898 11.1253 17.1968 11.1247 16.9952L11.1133 11.3765C11.1131 11.2763 11.1327 11.1771 11.1709 11.0845C11.2091 10.9919 11.2651 10.9078 11.3359 10.8369C11.4066 10.766 11.4907 10.7098 11.5832 10.6714C11.6757 10.633 11.7748 10.6133 11.875 10.6133H13.466C15.2785 10.6133 16.4962 12.0482 16.4962 14.1838C16.4962 16.2153 15.247 17.7117 13.5258 17.7418ZM21.3315 13.3732C21.7522 13.3732 22.0932 13.7143 22.0932 14.135C22.0932 14.5556 21.7522 14.8967 21.3315 14.8967H19.9492V17.0625C19.9492 17.4832 19.6082 17.8242 19.1875 17.8242C18.7668 17.8242 18.4258 17.4832 18.4258 17.0625V11.3162C18.4258 10.8955 18.7668 10.5545 19.1875 10.5545H21.5165C21.9372 10.5545 22.2782 10.8955 22.2782 11.3162C22.2782 11.7369 21.9372 12.0779 21.5165 12.0779H19.9492V13.3732H21.3315Z" fill="#94765B"/>
<path d="M13.466 12.1367H12.6381C12.6393 12.8243 12.6434 15.5652 12.6456 16.2268C12.9625 16.2248 13.302 16.222 13.4992 16.2185C14.5171 16.2007 14.9728 15.1837 14.9728 14.1838C14.9728 13.7035 14.8641 12.1367 13.466 12.1367ZM6.98685 12.1367H6.139C6.13992 12.4757 6.14078 12.8363 6.14078 13.0086C6.14078 13.2099 6.1422 13.5592 6.14383 13.8834C6.45644 13.8819 6.79037 13.8804 6.9869 13.8804C7.47684 13.8804 7.89075 13.4812 7.89075 13.0086C7.89075 12.536 7.47678 12.1367 6.98685 12.1367ZM22.9684 5.83984C22.79 5.35066 22.513 4.90334 22.1545 4.52563L18.9906 1.18823C18.2747 0.433113 17.2673 0 16.2267 0H6.08594C4.8259 0 3.80078 1.02512 3.80078 2.28516V5.83984H22.9684ZM3.80078 22.5977V23.7148C3.80078 24.9749 4.8259 26 6.08594 26H20.9141C22.1741 26 23.1992 24.9749 23.1992 23.7148V22.5977H3.80078Z" fill="#94765B"/>
</g>
<defs>
<clipPath id="clip0_80_15302">
<rect width="26" height="26" fill="white" transform="translate(0.5)"/>
</clipPath>
</defs>
</svg>
