<svg width="22" height="24" viewBox="0 0 22 24" fill="none" xmlns="http://www.w3.org/2000/svg">
<path d="M11.0068 0.600142C10.901 0.598851 10.7967 0.625532 10.7045 0.677486L1.10449 6.07749C1.01203 6.12989 0.935115 6.20587 0.88159 6.29768C0.828065 6.3895 0.799844 6.49386 0.799805 6.60014V17.4001C0.799844 17.5064 0.828065 17.6108 0.88159 17.7026C0.935115 17.7944 1.01203 17.8704 1.10449 17.9228L10.7045 23.3228C10.7946 23.3736 10.8963 23.4004 10.9998 23.4004C11.1033 23.4004 11.205 23.3736 11.2951 23.3228L20.8951 17.9228C20.9876 17.8704 21.0645 17.7944 21.118 17.7026C21.1715 17.6108 21.1998 17.5064 21.1998 17.4001V6.60014C21.1998 6.49386 21.1715 6.3895 21.118 6.29768C21.0645 6.20587 20.9876 6.12989 20.8951 6.07749L11.2951 0.677486C11.2071 0.627874 11.1079 0.601272 11.0068 0.600142ZM10.9998 1.8892L19.374 6.60014L10.9998 11.3111L2.62559 6.60014L10.9998 1.8892ZM1.9998 7.62671L10.3998 12.3517V21.7736L1.9998 17.0486V7.62671ZM19.9998 7.62671V17.0486L11.5998 21.7736V12.3517L19.9998 7.62671Z" fill="#BBA590"/>
</svg>
